<svg width="172" height="172" viewBox="0 0 172 172" fill="none" xmlns="http://www.w3.org/2000/svg">
<rect width="172" height="172" rx="86" fill="white"/>
<path fill-rule="evenodd" clip-rule="evenodd" d="M73.6398 49.7749C73.6398 48.3942 74.7591 47.2749 76.1398 47.2749H78.4995C82.4122 47.2749 85.6139 50.4444 85.6139 54.3675V86.1502C85.6139 92.3957 80.5507 97.4179 74.3045 97.4179H58.8094C52.5633 97.4179 47.5 92.3957 47.5 86.1502V54.3936C47.5 50.4705 50.7018 47.301 54.6145 47.301H56.4497C57.8305 47.301 58.9497 48.4203 58.9497 49.801C58.9497 51.1817 57.8305 52.301 56.4497 52.301H54.6145C53.4408 52.301 52.5 53.2543 52.5 54.3936V86.1502C52.5 89.6119 55.3023 92.4179 58.8094 92.4179H74.3045C77.8117 92.4179 80.6139 89.6119 80.6139 86.1502V54.3675C80.6139 53.2282 79.6732 52.2749 78.4995 52.2749H76.1398C74.7591 52.2749 73.6398 51.1556 73.6398 49.7749Z" fill="#29678F"/>
<path fill-rule="evenodd" clip-rule="evenodd" d="M57.9966 42.9453C59.3773 42.9453 60.4966 44.0646 60.4966 45.4453V53.5606C60.4966 54.9413 59.3773 56.0606 57.9966 56.0606C56.6159 56.0606 55.4966 54.9413 55.4966 53.5606V45.4453C55.4966 44.0646 56.6159 42.9453 57.9966 42.9453Z" fill="#29678F"/>
<path fill-rule="evenodd" clip-rule="evenodd" d="M75.1436 42.9453C76.5243 42.9453 77.6436 44.0646 77.6436 45.4453V53.5606C77.6436 54.9413 76.5243 56.0606 75.1436 56.0606C73.7628 56.0606 72.6436 54.9413 72.6436 53.5606V45.4453C72.6436 44.0646 73.7628 42.9453 75.1436 42.9453Z" fill="#29678F"/>
<path fill-rule="evenodd" clip-rule="evenodd" d="M60.4349 92.4197C61.8156 92.4197 62.9349 93.539 62.9349 94.9197V102.043C62.9349 102.269 63.1154 102.466 63.3714 102.466H69.7687C70.0248 102.466 70.2052 102.269 70.2052 102.043V94.9197C70.2052 93.539 71.3245 92.4197 72.7052 92.4197C74.0859 92.4197 75.2052 93.539 75.2052 94.9197V102.043C75.2052 105.053 72.7638 107.466 69.7687 107.466H63.3714C60.3764 107.466 57.9349 105.053 57.9349 102.043V94.9197C57.9349 93.539 59.0542 92.4197 60.4349 92.4197Z" fill="#29678F"/>
<path fill-rule="evenodd" clip-rule="evenodd" d="M99.6748 77.828C99.6748 71.7652 104.607 66.8735 110.67 66.8735C116.732 66.8735 121.664 71.7652 121.664 77.828V83.4644C121.664 84.8451 120.545 85.9643 119.164 85.9643C117.784 85.9643 116.664 84.8451 116.664 83.4644V77.828C116.664 74.549 113.993 71.8735 110.67 71.8735C107.346 71.8735 104.675 74.549 104.675 77.828V111.49C104.675 122.797 95.469 131.942 84.1365 131.942C72.8039 131.942 63.5981 122.797 63.5981 111.49V104.992C63.5981 103.611 64.7174 102.492 66.0981 102.492C67.4789 102.492 68.5981 103.611 68.5981 104.992V111.49C68.5981 120.013 75.5429 126.942 84.1365 126.942C92.73 126.942 99.6748 120.013 99.6748 111.49V77.828Z" fill="#29678F"/>
<path fill-rule="evenodd" clip-rule="evenodd" d="M119.06 86.4335C115.491 86.4335 112.619 89.3093 112.619 92.8317C112.619 96.3541 115.491 99.2298 119.06 99.2298C122.628 99.2298 125.5 96.3541 125.5 92.8317C125.5 89.3093 122.628 86.4335 119.06 86.4335ZM107.619 92.8317C107.619 86.5255 112.752 81.4335 119.06 81.4335C125.367 81.4335 130.5 86.5255 130.5 92.8317C130.5 99.1379 125.367 104.23 119.06 104.23C112.752 104.23 107.619 99.1379 107.619 92.8317Z" fill="#29678F"/>
<path d="M119.06 96.7193C121.217 96.7193 122.966 94.9785 122.966 92.8312C122.966 90.6839 121.217 88.9432 119.06 88.9432C116.902 88.9432 115.153 90.6839 115.153 92.8312C115.153 94.9785 116.902 96.7193 119.06 96.7193Z" fill="#29678F"/>
</svg>
