<svg width="172" height="172" viewBox="0 0 172 172" fill="none" xmlns="http://www.w3.org/2000/svg">
<path d="M0 85.0115C0 38.0609 38.5035 0 86 0C133.496 0 172 38.0609 172 85.0115V86.9885C172 133.939 133.496 172 86 172C38.5035 172 0 133.939 0 86.9885V85.0115Z" fill="white"/>
<path d="M90.2305 55.3719C105.348 55.3719 117.659 67.5353 117.659 82.6719C117.659 97.8086 105.348 109.882 90.2305 109.882" fill="white"/>
<path fill-rule="evenodd" clip-rule="evenodd" d="M114.159 82.6719C114.159 69.4913 103.438 58.8719 90.2305 58.8719V51.8719C107.258 51.8719 121.159 65.5793 121.159 82.6719C121.159 99.7796 107.243 113.382 90.2305 113.382V106.382C103.453 106.382 114.159 95.8376 114.159 82.6719Z" fill="#29678F"/>
<path d="M102.451 116.099H69.7723C68.505 116.099 67.4187 115.018 67.4187 113.756V105.017C67.4187 103.755 68.505 102.674 69.7723 102.674H104.805V113.666C104.805 115.108 103.809 116.099 102.451 116.099Z" fill="#29678F"/>
<path d="M103.899 115.828C106.649 115.828 108.878 113.61 108.878 110.873C108.878 108.136 106.649 105.917 103.899 105.917C101.15 105.917 98.9207 108.136 98.9207 110.873C98.9207 113.61 101.15 115.828 103.899 115.828Z" fill="white"/>
<path fill-rule="evenodd" clip-rule="evenodd" d="M103.899 108.304C102.457 108.304 101.307 109.465 101.307 110.873C101.307 112.281 102.457 113.441 103.899 113.441C105.341 113.441 106.491 112.281 106.491 110.873C106.491 109.465 105.341 108.304 103.899 108.304ZM96.5337 110.873C96.5337 106.807 99.842 103.531 103.899 103.531C107.957 103.531 111.265 106.807 111.265 110.873C111.265 114.939 107.957 118.215 103.899 118.215C99.842 118.215 96.5337 114.939 96.5337 110.873Z" fill="#29678F"/>
<path d="M79.9108 73.2115L69.8628 69.4273C68.5954 68.9768 67.9618 67.5352 68.4144 66.2739L77.6478 41.5867C78.1004 40.3253 79.5488 39.6946 80.8161 40.1451L90.8642 43.9293C92.1315 44.3798 92.7652 45.8214 92.3125 47.0828L82.9886 71.7699C82.536 73.0313 81.1782 73.662 79.9108 73.2115Z" fill="#29678F"/>
<path d="M74.6606 76.8155L71.3112 75.5541C70.4965 75.2838 70.0439 74.2927 70.406 73.4818L80.273 47.3531C80.5446 46.5422 81.5403 46.0917 82.3551 46.4521L85.7044 47.7135C86.5191 47.9838 86.9718 48.9749 86.6097 49.7858L76.7426 75.9145C76.471 76.7254 75.4753 77.1759 74.6606 76.8155Z" fill="#29678F"/>
<path d="M86.7906 66.0036C90.8402 66.0036 94.123 62.7362 94.123 58.7056C94.123 54.675 90.8402 51.4076 86.7906 51.4076C82.7411 51.4076 79.4583 54.675 79.4583 58.7056C79.4583 62.7362 82.7411 66.0036 86.7906 66.0036Z" fill="#29678F"/>
<path fill-rule="evenodd" clip-rule="evenodd" d="M56.613 98.4392C56.613 97.121 57.6817 96.0523 58.9999 96.0523H87.8769C89.1951 96.0523 90.2638 97.121 90.2638 98.4392C90.2638 99.7575 89.1951 100.826 87.8769 100.826H58.9999C57.6817 100.826 56.613 99.7575 56.613 98.4392Z" fill="#29678F"/>
<path d="M87.2432 63.5709C89.9929 63.5709 92.222 61.3523 92.222 58.6155C92.222 55.8787 89.9929 53.66 87.2432 53.66C84.4935 53.66 82.2644 55.8787 82.2644 58.6155C82.2644 61.3523 84.4935 63.5709 87.2432 63.5709Z" fill="white"/>
<path fill-rule="evenodd" clip-rule="evenodd" d="M87.2431 56.0469C85.8011 56.0469 84.6512 57.2075 84.6512 58.6155C84.6512 60.0235 85.8011 61.184 87.2431 61.184C88.6852 61.184 89.835 60.0235 89.835 58.6155C89.835 57.2075 88.6852 56.0469 87.2431 56.0469ZM79.8774 58.6155C79.8774 54.5499 83.1858 51.2731 87.2431 51.2731C91.3005 51.2731 94.6088 54.5499 94.6088 58.6155C94.6088 62.6811 91.3005 65.9578 87.2431 65.9578C83.1858 65.9578 79.8774 62.6811 79.8774 58.6155Z" fill="#29678F"/>
<path d="M108.335 131.055H61.8061C60.9009 131.055 60.0862 130.334 60.0862 129.343C60.0862 123.577 64.7934 118.982 70.4964 118.982H108.335C109.24 118.982 110.055 119.703 110.055 120.694V129.343C110.055 130.244 109.331 131.055 108.335 131.055Z" fill="#29678F"/>
<path d="M95.4808 114.477H74.751V120.514H95.4808V114.477Z" fill="#29678F"/>
</svg>
