<svg width="172" height="172" viewBox="0 0 172 172" fill="none" xmlns="http://www.w3.org/2000/svg">
<rect width="172" height="172" rx="86" fill="white"/>
<path fill-rule="evenodd" clip-rule="evenodd" d="M50.1803 39.7667C38.6416 43.8294 30.6839 56.7992 30.5712 71.7259C30.4756 84.4492 30.2002 84.1946 44.0541 84.1946H55.9877L57.4948 80.5013C58.3235 78.4694 59.8681 72.8453 60.929 68.0008C62.263 61.9051 63.3694 59.1936 64.5225 59.1936C66.8275 59.1936 67.1132 60.2482 69.9623 79.2819C72.4654 96.0064 73.1051 97.4713 74.5985 89.8766C76.4004 80.7058 78.7851 73.9669 80.2261 73.9669C81.1197 73.9669 82.547 76.7943 83.6682 80.7854C84.7223 84.5355 85.9744 87.6038 86.4513 87.6038C86.9283 87.6038 88.8235 82.873 90.6618 77.092C94.7311 64.2938 96.7231 63.4029 98.9109 73.3987C101.308 84.3491 99.5927 83.5843 122.584 83.9503C133.785 84.1276 144.103 83.99 145.511 83.6434C149.196 82.7389 148.666 80.7854 144.735 80.7854H141.398L141.421 72.5464C141.45 61.9608 138.244 53.2138 131.814 46.3465C120.854 34.6415 102.309 35.3358 90.3863 47.8977L86.1998 52.3081L80.6871 47.159C71.2702 38.3655 61.1361 35.9097 50.1803 39.7667ZM62.1299 80.8036C61.6051 84.6105 60.649 86.8754 59.2523 87.622C58.1015 88.2368 49.6988 88.7402 40.5801 88.7402C30.2855 88.7402 24 89.1709 24 89.8766C24 90.5017 26.2606 91.0131 29.0221 91.0131C33.8904 91.0131 34.2023 91.2347 39.1982 98.2224C48.0278 110.576 59.8112 120.165 78.011 129.809L85.9209 134L92.8086 130.557C109.866 122.027 125.348 109.412 133.242 97.6099C135.764 93.8393 137.827 90.313 137.827 89.7744C137.827 89.2346 128.991 88.6539 118.192 88.4834L98.5568 88.172L96.9974 83.2514C96.1403 80.5445 95.035 78.7546 94.5422 79.2739C94.0504 79.7922 92.5217 84.0525 91.1456 88.7402C87.14 102.386 84.7314 103.09 82.1065 91.379L80.6541 84.9003L77.6058 97.0383C72.635 116.838 71.573 116.191 67.2578 90.729C65.8008 82.1354 64.2277 75.1033 63.7621 75.1033C63.2966 75.1033 62.5613 77.6682 62.1299 80.8036Z" fill="#29678F"/>
</svg>
