<svg width="172" height="172" viewBox="0 0 172 172" fill="none" xmlns="http://www.w3.org/2000/svg">
<path d="M0 85.0115C0 38.0609 38.5035 0 86 0C133.496 0 172 38.0609 172 85.0115V86.9885C172 133.939 133.496 172 86 172C38.5035 172 0 133.939 0 86.9885V85.0115Z" fill="white"/>
<circle cx="86.244" cy="58.6585" r="19.6585" fill="#29678F"/>
<path d="M56 105.585C56 91.7783 67.1929 80.5854 81 80.5854H90.7317C104.539 80.5854 115.732 91.7783 115.732 105.585V132H56V105.585Z" fill="#29678F"/>
<circle cx="71.8781" cy="112.341" r="6.80488" fill="white"/>
<path d="M67.7195 95.3293C67.7195 87.3903 70.3658 81.3415 70.3658 81.3415L73.0122 80.5854C73.0122 80.5854 69.9878 90.0366 69.9878 95.3293C69.9878 100.622 71.878 107.427 71.878 107.427H69.6097C69.6097 107.427 67.7195 103.268 67.7195 95.3293Z" fill="white" stroke="white"/>
<path d="M96.8294 90.4147V80.2073H98.3416L99.4758 90.0366C99.4758 90.0366 108.549 95.3293 109.305 100.622C110.061 105.915 104.768 110.073 104.768 110.073C104.768 110.073 103.256 111.207 102.5 110.073C101.744 108.939 102.878 108.561 102.878 108.561C102.878 108.561 108.549 105.159 107.415 100.622C106.281 96.0854 98.7196 91.1708 98.7196 91.1708C98.7196 91.1708 93.759 95.7073 91.1586 100.244C88.5583 104.781 94.9391 108.183 94.9391 108.183C94.9391 108.183 97.2074 109.317 96.4514 110.073C95.6953 110.829 93.805 109.317 93.805 109.317C93.805 109.317 86.6221 105.159 88.8904 100.622C91.1587 96.0854 96.8294 90.4147 96.8294 90.4147Z" fill="white" stroke="white"/>
</svg>
