<svg width="172" height="172" viewBox="0 0 172 172" fill="none" xmlns="http://www.w3.org/2000/svg">
<path d="M0 85.0115C0 38.0609 38.5035 0 86 0C133.496 0 172 38.0609 172 85.0115V86.9885C172 133.939 133.496 172 86 172C38.5035 172 0 133.939 0 86.9885V85.0115Z" fill="white"/>
<path d="M52.1001 117.111C47.2001 117.111 43.1001 113.111 43.1001 108.111V65.8113H121.6V108.111C121.6 113.111 117.8 117.111 112.9 117.111H52.1001Z" fill="white"/>
<path d="M119.7 67.8113V108.111C119.7 112.011 116.8 115.111 113 115.111H52.1001C48.3001 115.111 45.1001 112.011 45.1001 108.111V67.8113H119.7ZM123.7 63.8113H41.1001V108.111C41.1001 114.211 46.0001 119.111 52.1001 119.111H113C119.1 119.111 123.7 114.211 123.7 108.111V63.8113Z" fill="#29678F"/>
<path d="M112.8 52.9111H52C45.9 52.9111 41 57.8111 41 63.9111V75.1111H123.8V63.9111C123.8 57.8111 118.9 52.9111 112.8 52.9111Z" fill="#29678F"/>
<path d="M106.4 56.8113H99.2C97.7 56.8113 96.5 55.6113 96.5 54.1113V49.0113C96.5 47.5113 97.7 46.3113 99.2 46.3113H106.4C107.9 46.3113 109.1 47.5113 109.1 49.0113V54.1113C109.1 55.6113 107.9 56.8113 106.4 56.8113Z" fill="#29678F"/>
<path fill-rule="evenodd" clip-rule="evenodd" d="M99.2 47.6226C98.4242 47.6226 97.8113 48.2355 97.8113 49.0113V54.1113C97.8113 54.8871 98.4242 55.5 99.2 55.5H106.4C107.176 55.5 107.789 54.8871 107.789 54.1113V49.0113C107.789 48.2355 107.176 47.6226 106.4 47.6226H99.2ZM95.1887 49.0113C95.1887 46.7871 96.9758 45 99.2 45H106.4C108.624 45 110.411 46.7871 110.411 49.0113V54.1113C110.411 56.3355 108.624 58.1226 106.4 58.1226H99.2C96.9758 58.1226 95.1887 56.3355 95.1887 54.1113V49.0113Z" fill="white"/>
<path d="M65.6 56.8113H58.4C56.9 56.8113 55.7 55.6113 55.7 54.1113V49.0113C55.7 47.5113 56.9 46.3113 58.4 46.3113H65.6C67.1 46.3113 68.3 47.5113 68.3 49.0113V54.1113C68.3 55.6113 67.1 56.8113 65.6 56.8113Z" fill="#29678F"/>
<path fill-rule="evenodd" clip-rule="evenodd" d="M58.4 47.6226C57.6242 47.6226 57.0113 48.2355 57.0113 49.0113V54.1113C57.0113 54.8871 57.6242 55.5 58.4 55.5H65.6C66.3758 55.5 66.9887 54.8871 66.9887 54.1113V49.0113C66.9887 48.2355 66.3758 47.6226 65.6 47.6226H58.4ZM54.3887 49.0113C54.3887 46.7871 56.1758 45 58.4 45H65.6C67.8242 45 69.6113 46.7871 69.6113 49.0113V54.1113C69.6113 56.3355 67.8242 58.1226 65.6 58.1226H58.4C56.1758 58.1226 54.3887 56.3355 54.3887 54.1113V49.0113Z" fill="white"/>
<path d="M75.8 102.511L84.8 85.9113H76V82.9113H90.0001L79.8 102.511H75.8Z" fill="#29678F"/>
<path d="M80.1 103.011H75L84 86.4113H75.5V82.4113H90.9L80.1 103.011ZM76.7 102.011H79.5L89.2 83.4113H76.5V85.4113H85.7L76.7 102.011Z" fill="#29678F"/>
<path d="M120.3 125.611C129.689 125.611 137.3 118 137.3 108.611C137.3 99.2225 129.689 91.6113 120.3 91.6113C110.911 91.6113 103.3 99.2225 103.3 108.611C103.3 118 110.911 125.611 120.3 125.611Z" fill="#29678F"/>
<path fill-rule="evenodd" clip-rule="evenodd" d="M120.3 93.569C111.992 93.569 105.258 100.304 105.258 108.611C105.258 116.919 111.992 123.654 120.3 123.654C128.608 123.654 135.342 116.919 135.342 108.611C135.342 100.304 128.608 93.569 120.3 93.569ZM101.342 108.611C101.342 98.1412 109.83 89.6536 120.3 89.6536C130.77 89.6536 139.258 98.1412 139.258 108.611C139.258 119.081 130.77 127.569 120.3 127.569C109.83 127.569 101.342 119.081 101.342 108.611Z" fill="white"/>
<path d="M120.3 101.811V108.611H127.6" fill="#29678F"/>
<path fill-rule="evenodd" clip-rule="evenodd" d="M120.3 100.245C121.165 100.245 121.866 100.946 121.866 101.811V107.045H127.6C128.465 107.045 129.166 107.746 129.166 108.611C129.166 109.476 128.465 110.177 127.6 110.177H120.3C119.435 110.177 118.734 109.476 118.734 108.611V101.811C118.734 100.946 119.435 100.245 120.3 100.245Z" fill="white"/>
</svg>
